<svg xmlns="http://www.w3.org/2000/svg" xmlns:xlink="http://www.w3.org/1999/xlink" version="1.1" x="0px" y="0px" viewBox="0 0 512 640" style="enable-background:new 0 0 512 512;" xml:space="preserve"><g><path d="M88.485,282.855h335.012c4.295,0,7.792-3.497,7.792-7.792V111.424c0-4.295-3.497-7.792-7.792-7.792H88.485   c-4.295,0-7.792,3.497-7.792,7.792v163.638C80.692,279.358,84.189,282.855,88.485,282.855z M96.277,267.27V163.443h319.427V267.27   H96.277z M415.704,119.217v28.641H96.277v-28.641H415.704z"/><path d="M301.632,186.725c-2.851-3.174-7.83-3.44-10.985-0.532l-25.239,22.883c-1.634,1.463-2.566,3.554-2.566,5.759   c0,2.186,0.931,4.295,2.566,5.759l25.239,22.902c1.482,1.368,3.364,2.034,5.227,2.034c2.11,0,4.238-0.874,5.759-2.566   c2.889-3.174,2.661-8.096-0.532-10.985l-18.873-17.143L301.1,197.71C304.293,194.84,304.521,189.899,301.632,186.725z"/><path d="M375.203,188.112c-3.136-2.908-8.115-2.642-10.985,0.532c-2.889,3.174-2.661,8.096,0.532,10.985l18.873,17.143   l-18.873,17.143c-3.193,2.889-3.421,7.811-0.532,10.985c1.52,1.691,3.649,2.566,5.759,2.566c1.863,0,3.744-0.665,5.227-2.034   l25.239-22.902c1.634-1.463,2.566-3.554,2.566-5.759s-0.931-4.295-2.566-5.759L375.203,188.112z"/><path d="M349.698,168.441c-3.991-1.387-8.477,0.722-9.902,4.808l-28.451,81.952c-1.406,4.048,0.741,8.495,4.808,9.902   c0.836,0.285,1.691,0.437,2.547,0.437c3.231,0,6.234-2.015,7.355-5.246l28.451-81.952   C355.912,174.295,353.765,169.848,349.698,168.441z"/><path d="M120.693,140.305c4.122,0,7.463-3.341,7.463-7.463s-3.341-7.463-7.463-7.463c-4.121,0-7.462,3.341-7.462,7.463   S116.573,140.305,120.693,140.305z"/><path d="M150.132,140.305c4.121,0,7.462-3.341,7.462-7.463s-3.341-7.463-7.462-7.463c-4.122,0-7.463,3.341-7.463,7.463   S146.01,140.305,150.132,140.305z"/><circle cx="179.569" cy="132.841" r="7.463"/><path d="M186.241,218.778c0,0-3.48,0.012-6.576-1.825c-0.406-3.752-1.537-7.254-3.256-10.379c1.487-3.27,4.342-5.247,4.342-5.247   l-8.31-8.854c0,0-2.162,2.731-5.528,4.004c-3.047-1.934-6.476-3.281-10.136-3.914c-1.637-3.205-1.403-6.678-1.403-6.678   l-12.104,0.976c0,0,0.788,3.391-0.315,6.816c-3.511,1.212-6.68,3.091-9.377,5.488c-3.528-0.719-6.1-3.067-6.1-3.067l-6.784,10.072   c0,0,3.135,1.493,5.126,4.483c-1.195,3.36-1.75,6.999-1.55,10.768c-2.761,2.309-6.198,2.854-6.198,2.854l3.646,11.583   c0,0,3.12-1.518,6.699-1.213c1.948,3.125,4.483,5.825,7.454,7.947c0.076,3.59-1.636,6.606-1.636,6.606l11.33,4.372   c0,0,0.754-3.376,3.216-5.982c1.789,0.209,3.622,0.253,5.485,0.102c1.864-0.15,3.667-0.487,5.4-0.98   c2.846,2.179,4.133,5.389,4.133,5.389l10.483-6.13c0,0-2.174-2.704-2.673-6.259c2.591-2.571,4.661-5.641,6.083-9.038   c3.484-0.875,6.809,0.124,6.809,0.124L186.241,218.778z M153.253,235.129c-8.575,0.691-16.086-5.699-16.778-14.273   c-0.69-8.575,5.7-16.086,14.274-16.777c8.574-0.693,16.086,5.698,16.777,14.273C168.218,226.926,161.828,234.438,153.253,235.129z"/><path d="M232.858,217.681c1.242-2.728,3.624-4.38,3.624-4.38l-6.937-7.391c0,0-1.804,2.279-4.615,3.343   c-2.542-1.614-5.405-2.739-8.46-3.267c-1.366-2.675-1.171-5.575-1.171-5.575l-10.104,0.815c0,0,0.657,2.831-0.263,5.69   c-2.932,1.011-5.576,2.58-7.827,4.58c-2.946-0.6-5.091-2.56-5.091-2.56l-5.664,8.408c0,0,2.617,1.246,4.279,3.742   c-0.998,2.806-1.461,5.842-1.294,8.988c-2.306,1.927-5.174,2.382-5.174,2.382l3.042,9.669c0,0,2.606-1.267,5.594-1.012   c1.626,2.609,3.742,4.862,6.221,6.634c0.064,2.996-1.365,5.513-1.365,5.513l9.456,3.65c0,0,0.631-2.819,2.685-4.994   c1.494,0.175,3.024,0.21,4.58,0.086c1.555-0.125,3.06-0.406,4.507-0.817c2.376,1.817,3.45,4.498,3.45,4.498l8.75-5.118   c0,0-1.814-2.257-2.231-5.224c2.163-2.145,3.891-4.709,5.078-7.544c2.909-0.731,5.684,0.102,5.684,0.102l1.453-10.031   c0,0-2.904,0.011-5.488-1.523C235.238,223.213,234.293,220.291,232.858,217.681z M213.53,241.518   c-7.157,0.577-13.427-4.757-14.005-11.914c-0.577-7.158,4.757-13.427,11.915-14.005c7.157-0.577,13.426,4.757,14.005,11.914   C226.021,234.671,220.688,240.942,213.53,241.518z"/><path d="M472.607,64.975H39.393c-4.295,0-7.792,3.497-7.792,7.792v240.934c0,4.295,3.497,7.792,7.792,7.792H211.28v64.522   c-37.082,3.1-78.379,10.727-78.379,29.575c0,30.542,110.498,31.435,123.099,31.435s123.099-0.893,123.099-31.435   c0-18.844-41.406-26.468-78.379-29.576v-64.52h171.887c4.295,0,7.792-3.497,7.792-7.792V72.767   C480.399,68.472,476.902,64.975,472.607,64.975z M362.735,415.609c-7.146,5.949-43.086,15.832-106.735,15.832   s-99.608-9.883-106.735-15.832c4.73-3.799,23.521-10.559,62.015-13.937v10.706c0,4.295,3.497,7.792,7.792,7.792h73.856   c4.295,0,7.792-3.497,7.792-7.792v-10.706C339.225,405.063,358.004,411.813,362.735,415.609z M285.136,404.586h-58.271v-83.092   h58.271V404.586z M464.814,305.909H292.928h-73.856H47.186V80.559h417.629V305.909z"/></g><text x="0" y="527" fill="#000000" font-size="5px" font-weight="bold" font-family="'Helvetica Neue', Helvetica, Arial-Unicode, Arial, Sans-serif">Created by Econceptive</text><text x="0" y="532" fill="#000000" font-size="5px" font-weight="bold" font-family="'Helvetica Neue', Helvetica, Arial-Unicode, Arial, Sans-serif">from the Noun Project</text></svg>