<?xml version="1.0" encoding="utf-8"?>
<svg viewBox="0 0 500 500" xmlns="http://www.w3.org/2000/svg">
  <title>Marketing Plan</title>
  <path d="M 345.739 150.402 C 345.739 142.008 354.933 136.761 362.288 140.959 C 365.701 142.907 367.804 146.507 367.804 150.402 L 367.804 277.069 C 367.804 285.463 358.61 290.711 351.255 286.514 C 347.842 284.565 345.739 280.965 345.739 277.069 L 345.739 150.402 Z M 285.336 467.639 C 291.43 467.639 296.37 472.523 296.37 478.544 C 296.37 484.567 291.43 489.451 285.336 489.451 L 12.673 489.451 C 6.579 489.451 1.639 484.567 1.639 478.544 L 1.639 361.913 C 1.639 353.517 10.833 348.271 18.188 352.468 C 21.601 354.416 23.706 358.016 23.706 361.913 L 23.706 467.639 L 285.336 467.639 Z M 23.706 335.031 C 23.706 343.425 14.512 348.673 7.157 344.476 C 3.744 342.527 1.639 338.928 1.639 335.031 L 1.639 330.504 C 1.639 322.11 10.833 316.863 18.188 321.06 C 21.601 323.009 23.706 326.608 23.706 330.504 L 23.706 335.031 Z M 23.706 301.933 C 23.706 310.327 14.512 315.575 7.157 311.378 C 3.744 309.429 1.639 305.83 1.639 301.933 L 1.639 16.103 C 1.639 10.08 6.579 5.198 12.673 5.198 L 258.199 5.198 C 261.213 5.128 264.104 6.387 266.087 8.633 L 364.66 105.473 C 370.711 111.476 367.919 121.701 359.635 123.881 C 355.791 124.892 351.693 123.799 348.883 121.013 L 253.62 26.955 L 23.706 26.955 L 23.706 301.933 Z" style=""/>
  <path d="M 250.309 23.411 C 244.322 17.408 247.154 7.249 255.407 5.125 C 259.235 4.139 263.306 5.247 266.087 8.034 L 364.66 105.636 C 368.938 109.891 368.938 116.759 364.66 121.013 C 362.431 123.131 359.419 124.255 356.33 124.122 L 258.199 123.794 C 252.105 123.794 247.166 118.912 247.166 112.889 L 247.166 55.909 C 247.166 47.513 256.36 42.266 263.714 46.464 C 267.128 48.412 269.23 52.012 269.23 55.909 L 269.23 102.31 L 329.907 102.31 L 250.309 23.411 Z" style=""/>
  <path d="M 416.568 441.63 C 416.865 433.235 426.245 428.307 433.45 432.758 C 436.795 434.825 438.771 438.498 438.632 442.394 C 437.226 471.313 413.2 494.106 383.913 494.304 L 313.581 494.304 C 299.087 494.2 285.214 488.46 274.968 478.327 C 264.637 468.258 258.85 454.498 258.916 440.158 L 258.916 312.02 C 258.916 305.997 263.855 301.115 269.947 301.115 L 427.764 301.115 C 433.858 301.115 438.798 305.997 438.798 312.02 L 438.798 413.112 C 438.798 421.508 429.604 426.755 422.249 422.557 C 418.836 420.609 416.733 417.009 416.733 413.112 L 416.733 323.035 L 281.091 323.035 L 281.091 440.377 C 281.15 458.072 295.68 472.383 313.581 472.383 L 384.078 472.383 C 401.423 472.376 415.715 458.921 416.568 441.794 L 416.568 441.63 Z" style=""/>
  <path d="M 427.764 332.36 L 450.325 332.36 C 462.642 332.332 474.451 337.206 483.092 345.882 C 501.196 363.787 501.196 392.807 483.092 410.714 C 474.415 419.31 462.611 424.103 450.325 424.019 L 427.764 424.019 L 427.764 402.207 L 450.325 402.207 C 469.054 402.18 480.726 382.124 471.337 366.106 C 470.276 364.296 468.981 362.629 467.482 361.149 C 462.885 356.729 456.739 354.228 450.325 354.17 L 427.764 354.17 L 427.764 332.36 Z" style=""/>
  <path d="M 223.666 320.418 L 143.736 320.418 C 137.645 320.418 132.705 315.536 132.705 309.513 C 132.705 277.505 123.713 263.709 115.825 251.551 C 107.938 239.39 101.318 229.194 101.318 209.62 C 101.132 187.991 109.761 167.199 125.257 151.929 C 157.557 120.073 209.847 120.073 242.147 151.929 C 257.664 167.132 266.35 187.859 266.252 209.456 C 266.252 229.03 259.467 239.609 251.744 251.387 C 244.022 263.164 234.865 277.341 234.865 309.513 C 234.865 315.536 229.925 320.418 223.831 320.418 L 223.666 320.418 Z M 154.604 298.608 L 212.8 298.608 C 213.535 277.494 220.559 257.065 232.989 239.882 C 239.886 231.285 243.759 220.697 244.022 209.727 C 245.426 163.828 196.036 133.64 155.121 155.387 C 134.98 166.092 122.69 187.133 123.382 209.727 C 123.643 220.697 127.516 231.285 134.415 239.882 C 146.845 257.065 153.869 277.494 154.604 298.608 Z" style=""/>
  <path d="M 169.443 198.713 L 197.961 198.713 C 204.053 198.713 208.992 203.597 208.992 209.62 L 208.992 309.513 C 208.992 315.536 204.053 320.418 197.961 320.418 L 169.443 320.418 C 163.349 320.418 158.409 315.536 158.409 309.513 L 158.409 209.565 C 158.409 203.542 163.349 198.658 169.443 198.658 L 169.443 198.713 Z M 186.763 220.525 L 180.639 220.525 L 180.639 298.608 L 186.763 298.608 L 186.763 220.525 Z" style=""/>
  <path d="M 42.293 220.634 C 33.802 220.634 28.493 211.545 32.741 204.275 C 34.712 200.901 38.354 198.822 42.293 198.822 L 78.757 198.822 C 87.25 198.822 92.557 207.91 88.311 215.182 C 86.34 218.555 82.698 220.634 78.757 220.634 L 42.293 220.634 Z" style=""/>
  <path d="M 60.001 129.574 C 52.869 124.957 53.465 114.436 61.078 110.639 C 64.61 108.876 68.826 109.11 72.137 111.252 L 97.347 127.284 C 104.608 131.901 104.089 142.556 96.414 146.465 C 92.852 148.277 88.581 148.074 85.211 145.932 L 60.001 129.574 Z" style=""/>
  <path d="M 289.419 220.634 C 283.327 220.634 278.388 215.75 278.388 209.727 C 278.388 203.706 283.327 198.822 289.419 198.822 L 325.716 198.822 C 331.808 198.822 336.747 203.706 336.747 209.727 C 336.747 215.75 331.808 220.634 325.716 220.634 L 289.419 220.634 Z" style=""/>
  <path d="M 193.99 95.33 C 193.99 101.353 189.051 106.237 182.957 106.237 C 176.863 106.237 171.924 101.353 171.924 95.33 L 171.924 70.466 C 171.924 64.445 176.863 59.561 182.957 59.561 C 189.051 59.561 193.99 64.445 193.99 70.466 L 193.99 95.33 Z" style=""/>
  <path d="M 305.362 351.824 L 342.431 351.824 C 348.522 351.824 353.462 356.708 353.462 362.729 L 353.462 380.397 C 353.43 387.934 350.375 395.149 344.968 400.463 C 339.566 405.801 332.252 408.818 324.612 408.861 L 322.847 408.861 C 315.225 408.816 307.929 405.798 302.547 400.463 C 302.547 400.135 302.051 399.971 301.885 399.7 C 296.973 394.45 294.27 387.548 294.329 380.397 L 294.329 362.839 C 294.329 356.816 299.268 351.934 305.362 351.934 L 305.362 351.824 Z M 331.232 373.636 L 316.558 373.636 L 316.558 380.397 C 316.583 381.938 317.15 383.421 318.16 384.596 L 318.491 384.922 C 319.654 386.179 321.289 386.909 323.013 386.939 L 324.777 386.939 C 326.524 386.931 328.184 386.198 329.356 384.922 C 330.515 383.701 331.132 382.071 331.066 380.397 L 331.232 373.636 Z" style=""/>
  <rect x="312.807" y="309.349" width="22.23" height="53.49" style=""/>
  <path d="M 142.468 354.279 C 136.375 354.279 131.435 349.395 131.435 343.374 C 131.435 337.351 136.375 332.467 142.468 332.467 L 223.226 332.467 C 229.317 332.467 234.257 337.351 234.257 343.374 C 234.257 349.395 229.317 354.279 223.226 354.279 L 142.468 354.279 Z" style=""/>
  <path d="M 153.831 388.303 C 145.34 388.303 140.03 379.215 144.278 371.945 C 146.249 368.571 149.891 366.492 153.831 366.492 L 211.861 366.492 C 220.355 366.492 225.661 375.58 221.416 382.85 C 219.445 386.225 215.803 388.303 211.861 388.303 L 153.831 388.303 Z" style=""/>
</svg>