<svg xmlns="http://www.w3.org/2000/svg" xmlns:xlink="http://www.w3.org/1999/xlink" version="1.1"
  x="0px" y="0px" viewBox="0 0 100 125" style="enable-background:new 0 0 100 100;"
  xml:space="preserve"><g><path d="M85.7,17.81c-0.55,0-1,0.45-1,1s0.45,1,1,1H94v3h-8.3c-0.55,0-1,0.45-1,1s0.45,1,1,1H94V68.3H6V24.81h8.03   c0.55,0,1-0.45,1-1s-0.45-1-1-1H6v-3h8.03c0.55,0,1-0.45,1-1s-0.45-1-1-1H4V69.3v6h39.5v11.91h-7.72c-0.55,0-1,0.45-1,1s0.45,1,1,1   h28.45c0.55,0,1-0.45,1-1s-0.45-1-1-1H56.5V75.3H96v-6V17.81H85.7z M54.5,87.22h-9V75.3h9V87.22z M94,73.3H6v-3h88V73.3z"/><path d="M18.43,62.75c0.55,0,1-0.45,1-1V19.4h61.14v42.35c0,0.55,0.45,1,1,1s1-0.45,1-1V10.78H17.43v50.97   C17.43,62.3,17.88,62.75,18.43,62.75z M19.43,12.78h61.14v4.62H19.43V12.78z"/><path d="M29.72,13.81h-0.39c-0.55,0-1,0.45-1,1s0.45,1,1,1h0.39c0.55,0,1-0.45,1-1S30.28,13.81,29.72,13.81z"/><path d="M26.22,13.81h-0.39c-0.55,0-1,0.45-1,1s0.45,1,1,1h0.39c0.55,0,1-0.45,1-1S26.77,13.81,26.22,13.81z"/><path d="M22.71,13.81h-0.39c-0.55,0-1,0.45-1,1s0.45,1,1,1h0.39c0.55,0,1-0.45,1-1S23.26,13.81,22.71,13.81z"/><path d="M54.83,53.15c0.19,0.18,0.44,0.27,0.68,0.27c0.27,0,0.53-0.11,0.73-0.32l11.64-12.43L56.24,28.24   c-0.38-0.4-1.01-0.42-1.41-0.05c-0.4,0.38-0.42,1.01-0.05,1.41l10.36,11.07L54.78,51.74C54.4,52.14,54.42,52.78,54.83,53.15z"/><path d="M45.17,28.19c-0.4-0.38-1.04-0.36-1.41,0.05L32.12,40.67l11.64,12.43c0.2,0.21,0.46,0.32,0.73,0.32   c0.25,0,0.49-0.09,0.68-0.27c0.4-0.38,0.42-1.01,0.05-1.41L34.86,40.67l10.36-11.07C45.6,29.2,45.58,28.57,45.17,28.19z"/></g></svg>