<svg xmlns:dc="http://purl.org/dc/elements/1.1/" xmlns:cc="http://creativecommons.org/ns#"
  xmlns:rdf="http://www.w3.org/1999/02/22-rdf-syntax-ns#" xmlns:svg="http://www.w3.org/2000/svg"
  xmlns="http://www.w3.org/2000/svg"
  xmlns:sodipodi="http://sodipodi.sourceforge.net/DTD/sodipodi-0.dtd"
  xmlns:inkscape="http://www.inkscape.org/namespaces/inkscape" version="1.1" x="0px" y="0px"
  viewBox="0 0 100 125">
  <g transform="translate(0,-952.36218)">
    <path
      style="text-indent:0;text-transform:none;direction:ltr;block-progression:tb;baseline-shift:baseline;enable-background:accumulate;"
      d="m 50,958.36218 c -5.499158,0 -10,4.50084 -10,10 0,3.03092 1.383172,5.75579 3.53125,7.59375 C 38.465202,978.55021 35,984.05768 35,990.36218 a 2.0002005,2.0002005 0 0 0 2,2 l 26,0 a 2.0002005,2.0002005 0 0 0 2,-2 c 0,-6.3045 -3.465202,-11.81197 -8.53125,-14.40625 C 58.616829,974.11797 60,971.3931 60,968.36218 c 0,-5.49916 -4.500841,-10 -10,-10 z m 0,4 c 3.337398,0 6,2.6626 6,6 0,3.3374 -2.662602,6 -6,6 -3.337397,0 -6,-2.6626 -6,-6 0,-3.3374 2.662603,-6 6,-6 z m -16.96875,9.96875 A 2.0001999,2.0001999 0 0 0 32.125,972.54968 C 21.555106,977.79097 15,989.68213 15,1002.3622 l 0,4 a 2.0001999,2.0001999 0 1 0 4,0 l 0,-4 c 0,-11.29597 5.88934,-21.76306 14.875,-26.21877 a 2.0001999,2.0001999 0 0 0 -0.84375,-3.8125 z m 33.90625,0 a 2.0001999,2.0001999 0 0 0 -0.8125,3.8125 C 75.11066,980.59914 81,991.06623 81,1002.3622 l 0,4 a 2.0001999,2.0001999 0 1 0 4,0 l 0,-4 c 0,-12.68007 -6.555106,-24.57123 -17.125,-29.81252 a 2.0001999,2.0001999 0 0 0 -0.9375,-0.21875 z M 50,978.36218 c 5.378018,0 9.720042,4.29928 10.625,10 l -21.25,0 c 0.904958,-5.70072 5.246982,-10 10.625,-10 z m -29,34.00002 c -5.499159,0 -10,4.5008 -10,10 0,3.0309 1.383171,5.7558 3.53125,7.5937 C 9.465202,1032.5502 6,1038.0577 6,1044.3622 a 2.0002005,2.0002005 0 0 0 2,2 l 26,0 a 2.0002005,2.0002005 0 0 0 2,-2 c 0,-6.3045 -3.465202,-11.812 -8.53125,-14.4063 2.148078,-1.8379 3.53125,-4.5628 3.53125,-7.5937 0,-5.4992 -4.500842,-10 -10,-10 z m 58,0 c -5.499158,0 -10,4.5008 -10,10 0,3.0309 1.383172,5.7558 3.53125,7.5937 C 67.465202,1032.5502 64,1038.0577 64,1044.3622 a 2.0002005,2.0002005 0 0 0 2,2 l 26,0 a 2.0002005,2.0002005 0 0 0 2,-2 c 0,-6.3045 -3.465202,-11.812 -8.53125,-14.4063 2.148079,-1.8379 3.53125,-4.5628 3.53125,-7.5937 0,-5.4992 -4.500841,-10 -10,-10 z m -58,4 c 3.337397,0 6,2.6626 6,6 0,3.3374 -2.662603,6 -6,6 -3.337398,0 -6,-2.6626 -6,-6 0,-3.3374 2.662602,-6 6,-6 z m 58,0 c 3.337398,0 6,2.6626 6,6 0,3.3374 -2.662602,6 -6,6 -3.337397,0 -6,-2.6626 -6,-6 0,-3.3374 2.662603,-6 6,-6 z m -15.0625,12.9062 a 2.0002,2.0002 0 0 0 -0.96875,0.375 c -3.705762,2.2235 -8.395417,3.7188 -12.96875,3.7188 -4.573333,0 -9.262988,-1.4953 -12.96875,-3.7188 a 2.0002,2.0002 0 0 0 -1.15625,-0.3125 2.0002,2.0002 0 0 0 -0.90625,3.7188 c 4.294238,2.5765 9.604583,4.3125 15.03125,4.3125 5.426667,0 10.737012,-1.736 15.03125,-4.3125 a 2.0002,2.0002 0 0 0 -1.09375,-3.7813 z M 21,1032.3622 c 5.37802,0 9.720042,4.2993 10.625,10 l -21.25,0 c 0.904958,-5.7007 5.24698,-10 10.625,-10 z m 58,0 c 5.37802,0 9.720042,4.2993 10.625,10 l -21.25,0 c 0.904958,-5.7007 5.24698,-10 10.625,-10 z"
      fill-opacity="1" stroke="none" marker="none" visibility="visible"
      display="inline" overflow="visible" />
  </g>
</svg>